<svg width="175" height="176" viewBox="0 0 175 176" fill="none" xmlns="http://www.w3.org/2000/svg">
<g clip-path="url(#clip0_1_2)">
<path fill-rule="evenodd" clip-rule="evenodd" d="M29 1.29999H146.2C161.8 1.29999 174.4 14 174.4 29.6V146.8C174.4 162.4 161.8 175 146.2 175H47L46.6 100.2C46.6 100 46.6 99.8 46.6 99.6C46.6 71.3 69.1 48.3 97 48.3C113.7 48.3 127.3 62.1 127.3 79.1C127.3 96.1 113.7 109.9 97 109.9C91.4 109.9 86.9 105.3 86.9 99.6C86.9 94 91.4 89.4 97 89.4C102.6 89.4 107.1 84.8 107.1 79.1C107.1 73.5 102.6 68.9 97 68.9C80.3 68.9 66.8 82.6 66.8 99.6C66.8 116.7 80.3 130.4 97 130.4C124.9 130.4 147.4 107.5 147.4 79.1C147.4 50.8 124.9 27.8 97 27.8C58 27.8 26.4 59.9 26.4 99.6C26.4 99.8666 26.4 100.1 26.4 100.3H26.3L26.6 174.9C12.1 173.7 0.700012 161.6 0.700012 146.8V29.6C0.700012 14 13.3 1.29999 29 1.29999Z" fill="#18A497"/>
</g>
<defs>
<clipPath id="clip0_1_2">
<rect width="175" height="176" fill="white"/>
</clipPath>
</defs>
</svg>
