<svg width="24" height="24" viewBox="0 0 24 24" fill="none" xmlns="http://www.w3.org/2000/svg">
<rect x="2.40002" y="7" width="19.2" height="12.5" fill="#111111"/>
<path d="M2.4 22C1.74 22 1.175 21.7552 0.705 21.2656C0.235 20.776 0 20.1875 0 19.5V4.5C0 3.8125 0.235 3.22396 0.705 2.73438C1.175 2.24479 1.74 2 2.4 2H21.6C22.26 2 22.825 2.24479 23.295 2.73438C23.765 3.22396 24 3.8125 24 4.5V19.5C24 20.1875 23.765 20.776 23.295 21.2656C22.825 21.7552 22.26 22 21.6 22H2.4ZM2.4 19.5H21.6V7H2.4V19.5ZM8.01 13.25L5.73 10.875C5.49 10.625 5.375 10.3333 5.385 10C5.395 9.66667 5.52 9.375 5.76 9.125C6 8.89583 6.28 8.77604 6.6 8.76562C6.92 8.75521 7.2 8.875 7.44 9.125L10.56 12.375C10.8 12.625 10.92 12.9167 10.92 13.25C10.92 13.5833 10.8 13.875 10.56 14.125L7.44 17.375C7.22 17.6042 6.945 17.724 6.615 17.7344C6.285 17.7448 6 17.625 5.76 17.375C5.54 17.1458 5.43 16.8542 5.43 16.5C5.43 16.1458 5.54 15.8542 5.76 15.625L8.01 13.25ZM13.2 18.25C12.86 18.25 12.575 18.1302 12.345 17.8906C12.115 17.651 12 17.3542 12 17C12 16.6458 12.115 16.349 12.345 16.1094C12.575 15.8698 12.86 15.75 13.2 15.75H18C18.34 15.75 18.625 15.8698 18.855 16.1094C19.085 16.349 19.2 16.6458 19.2 17C19.2 17.3542 19.085 17.651 18.855 17.8906C18.625 18.1302 18.34 18.25 18 18.25H13.2Z" fill="#CCCCCC"/>
</svg>
